<?xml version="1.0"?><svg viewBox="0 0 32 32" xmlns="http://www.w3.org/2000/svg"><title/><g data-name="digg media social news" id="digg_media_social_news"><path d="M8,8A1,1,0,0,0,7,9v3H4a1,1,0,0,0-1,1v7a1,1,0,0,0,1,1H8a1,1,0,0,0,0-2H5V14H7v2a1,1,0,0,0,2,0V9A1,1,0,0,0,8,8Z"/><path d="M20,12H16a1,1,0,0,0-1,1v7a1,1,0,0,0,1,1h3v1H16a1,1,0,0,0,0,2h4a1,1,0,0,0,1-1V13A1,1,0,0,0,20,12Zm-1,7H17V14h2Z"/><path d="M28,12H24a1,1,0,0,0-1,1v7a1,1,0,0,0,1,1h3v1H24a1,1,0,0,0,0,2h4a1,1,0,0,0,1-1V13A1,1,0,0,0,28,12Zm-1,7H25V14h2Z"/><path d="M12,12a1,1,0,0,0-1,1v7a1,1,0,0,0,2,0V13A1,1,0,0,0,12,12Z"/><circle cx="12" cy="10" r="1"/></g></svg>