<?xml version="1.0"?><svg viewBox="0 0 32 32" xmlns="http://www.w3.org/2000/svg"><title/><g data-name="line chat chatting message" id="line_chat_chatting_message"><path d="M30,13.14a1,1,0,0,0-1,1,8.66,8.66,0,0,1-.18,1.67,1.36,1.36,0,0,0,0,.2A7.1,7.1,0,0,1,28,18.26a10.77,10.77,0,0,1-2.79,3.33,43.64,43.64,0,0,1-8.76,5.85l.17-.85A1.76,1.76,0,0,0,15,24.48c-6.44-.57-11.29-5,11.29-10.34C3.69,8.4,9.37,3.72,16.34,3.72A13.3,13.3,0,0,1,27.19,8.78,1,1,0,0,0,28.81,7.6,15.32,15.32,0,0,0,16.34,1.72C8.26,1.72,1.69,7.29,1.69,14.14c0,6.3,5.52,11.56,12.88,12.31L14,29.08a1,1,0,0,0,.37,1,1,1,0,0,0,.61.21,1,1,0,0,0,.45-.11,49.34,49.34,0,0,0,11-7.06,12.55,12.55,0,0,0,3.24-3.89,8.75,8.75,0,0,0,1.1-3.08s0-.08,0-.12A10.64,10.64,0,0,0,31,14.14,1,1,0,0,0,30,13.14Z"/><path d="M7,11a1,1,0,0,0-1,1v5a1,1,0,0,0,1,1h3a1,1,0,0,0,0-2H8V12A1,1,0,0,0,7,11Z"/><path d="M12,12v5a1,1,0,0,0,2,0V12a1,1,0,0,0-2,0Z"/><path d="M19,12v2.15l-2.22-2.77a1,1,0,0,0-1.11-.32A1,1,0,0,0,15,12v5a1,1,0,0,0,2,0V14.85l2.22,2.78A1,1,0,0,0,20,18a1,1,0,0,0,.33-.06A1,1,0,0,0,21,17V12a1,1,0,0,0-2,0Z"/><path d="M26,13a1,1,0,0,0,0-2H23a1,1,0,0,0-1,1v5a1,1,0,0,0,1,1h3a1,1,0,0,0,0-2H24v-.5h2a1,1,0,0,0,0-2H24V13Z"/></g></svg>
