<?xml version="1.0"?><svg viewBox="0 0 32 32" xmlns="http://www.w3.org/2000/svg"><title/><g data-name="pinterest media social" id="pinterest_media_social"><path d="M16.5,3C7.42,3,5,9.69,5,13.64a6.3,6.3,0,0,0,2.62,5.42,1.37,1.37,0,0,0,1.77-.24c.44-.43,1.55-2.18.93-3.12a4.4,4.4,0,0,1-.51-2.06c0-2.78,1.14-6.1,6.55-6.1a4.53,4.53,0,0,1,3.28,1,5.3,5.3,0,0,1,1.18,3.89c0,2.55-1.4,6.25-3.52,6.25A1.12,1.12,0,0,1,16.22,18a11.37,11.37,0,0,1,.63-3c.56-1.89,1.08-3.66.54-4.8C16.72,8.84,14.5,8.77,13.53,9a3.05,3.05,0,0,0-2,1.62,7.52,7.52,0,0,0-.17,6,1,1,0,1,0,1.87-.7,5.56,5.56,0,0,1,0-4.34,1.15,1.15,0,0,1,.7-.63,2.8,2.8,0,0,1,1.66.19c.21.45-.35,2.36-.65,3.38a10.78,10.78,0,0,0-.69,3.79,3,3,0,0,0,3.06,2.44c3.56,0,5.49-4.78,5.52-8.23C26.36,5.64,20.46,3,16.5,3Z"/></g></svg>
