<?xml version="1.0"?><svg viewBox="0 0 32 32" xmlns="http://www.w3.org/2000/svg"><title/><g data-name="soundcloud music sound audio" id="soundcloud_music_sound_audio"><path d="M4,16a1,1,0,0,0-1,1v4a1,1,0,0,0,2,0V17A1,1,0,0,0,4,16Z"/><path d="M7,13a1,1,0,0,0-1,1v8a1,1,0,0,0,2,0V14A1,1,0,0,0,7,13Z"/><path d="M10,12a1,1,0,0,0-1,1v9a1,1,0,0,0,2,0V13A1,1,0,0,0,10,12Z"/><path d="M13,9a1,1,0,0,0-1,1V22a1,1,0,0,0,2,0V10A1,1,0,0,0,13,9Z"/><path d="M26,15.11A8,8,0,0,0,18,8a3,3,0,0,0-3,3V22a1,1,0,0,0,2,0V11a1,1,0,0,1,1-1,6,6,0,0,1,6,6,1,1,0,0,0,1,1,2,2,0,0,1,0,4H20a1,1,0,0,0,0,2h5A4,4,0,0,0,26,15.11Z"/></g></svg>
