<?xml version="1.0"?><svg viewBox="0 0 32 32" xmlns="http://www.w3.org/2000/svg"><title/><g data-name="tumblr blog media post" id="tumblr_blog_media_post"><path d="M23,15a1,1,0,0,0,1-1V9a1,1,0,0,0-1-1H19V4a1,1,0,0,0-1-1H14a1,1,0,0,0-1,1A4,4,0,0,1,9,8,1,1,0,0,0,8,9v5a1,1,0,0,0,1,1h4a1,1,0,0,0,0-2H10V9.92A6,6,0,0,0,14.92,5H17V9a1,1,0,0,0,1,1h4v3H18a1,1,0,0,0-1,1v7a3,3,0,0,0,3,3h2v3H18a4,4,0,0,1-4-4V18a1,1,0,0,0-2,0v5a6,6,0,0,0,6,6h5a1,1,0,0,0,1-1V23a1,1,0,0,0-1-1H20a1,1,0,0,1-1-1V15Z"/></g></svg>
