<?xml version="1.0"?><svg viewBox="0 0 32 32" xmlns="http://www.w3.org/2000/svg"><title/><g data-name="yahoo email mail y" id="yahoo_email_mail_y"><path d="M19.24,10a1,1,0,0,0-.83-.44H13.85a1,1,0,0,0-.93.62L11.21,14.4,9.49,10.18a1,1,0,0,0-.93-.62H4a1,1,0,0,0,0,2H7.89l2.39,5.87a1,1,0,0,0,.93.62h0a1,1,0,0,0,.93-.62l2.38-5.87h2.4L11.1,25.84H8.7L9.86,23a1,1,0,0,0,0-.76L6.74,14.62a1,1,0,1,0-1.85.76l3,7.26L6.28,26.46a1,1,0,0,0,.93,1.38h4.56a1,1,0,0,0,.93-.62l6.64-16.28A1,1,0,0,0,19.24,10Z"/><path d="M29.66,4.68a1,1,0,0,0-.83-.44H24.27a1,1,0,0,0-.92.62L19,15.62A1,1,0,0,0,19.91,17h4.56a1,1,0,0,0,.92-.62L29.76,5.61A1,1,0,0,0,29.66,4.68ZM23.79,15h-2.4L25,6.24h2.4Z"/><path d="M20.41,17.7a3.41,3.41,0,1,0,3.41,3.41A3.41,3.41,0,0,0,20.41,17.7Zm0,4.82a1.41,1.41,0,1,1,1.41-1.41A1.41,1.41,0,0,1,20.41,22.52Z"/></g></svg>
